<svg xmlns="http://www.w3.org/2000/svg" width="24" height="24" viewBox="0 0 24 24" preserveAspectRatio="xMinYMid meet" overflow="visible"><style>.st0{fill:#999}.st1{fill:#70a034}</style><path class="st0" d="M7.5 21.7c1.1-2.5.5-3.4.3-5.7-7.2-3.3-5.7-11.4.4-13.4.5-.2.9-.2 1.4-.3 2.6-.2 5 1.2 6.3 3.4l2.8 5.5-2.1.3c1.3 1.5 1.5 1.4-.5 2.3l1.7 1.2c.1.4-.3.7-1.1.9.9 2.1.7 3.1-2.5 2.8 0 1 .2 2 .6 3H7.5zm12.1-5.5l-.6-.7c.9-.8 1-2.2.1-3.1l.7-.6c1.2 1.2 1.1 3.2-.2 4.4z"/><path class="st0" d="M20.1 16.6c1.5-1.4 1.6-3.8.2-5.3l.7-.6c1.7 1.9 1.6 4.8-.3 6.6l-.6-.7z"/><path class="st0" d="M21.1 17.7c1.8-1.2 3-4.3.4-7.6l.7-.6c2.3 2.5 2.2 6.4-.3 8.7l-.2.2-.6-.7z"/><path class="st1" d="M5.3 11.4c2.2-.1 4.1 1.6 4.1 3.8v.3c.1 2.2-1.6 4.1-3.8 4.1h-.3c-2.2.1-4.1-1.6-4.1-3.8v-.3c-.1-2.2 1.6-4.1 3.8-4.1h.3m0-1c-2.9 0-5.2 2.3-5.2 5.2s2.3 5.2 5.2 5.2 5.2-2.3 5.2-5.2-2.3-5.2-5.2-5.2z"/><path class="st1" d="M3.1 16.1l.5-.5.7-.7 1.2 1.8c.5-1 1-2 1.7-2.9.5-.6.9-1.2 1.5-1.7 0 0 .1.8.1 1.4 0 .5 0 .9-.1 1.4-.6.3-1.2.8-1.6 1.3-.6.7-1.1 1.5-1.5 2.3l-1.1-1.1c-.3-.5-.8-.9-1.4-1.3z"/></svg>