<?xml version="1.0" encoding="utf-8"?>
<!-- Generator: Adobe Illustrator 26.5.0, SVG Export Plug-In . SVG Version: 6.00 Build 0)  -->
<svg version="1.1" id="Layer_1" xmlns="http://www.w3.org/2000/svg" xmlns:xlink="http://www.w3.org/1999/xlink" x="0px" y="0px"
	 viewBox="0 0 24 24" style="enable-background:new 0 0 24 24;" xml:space="preserve">
<style type="text/css">
	.st0{fill:none;stroke:#1D1D1B;stroke-miterlimit:10;}
	.st1{fill:#1D1D1B;}
</style>
<path class="st0" d="M7.1129,20.4776c1.0327-2.347,0.4694-3.192,0.2816-5.3512C0.6351,12.0283,2.0433,4.424,7.77,2.5463
	c0.4694-0.1878,0.8449-0.1878,1.3143-0.2816c2.4409-0.1878,4.694,1.1266,5.9145,3.192l2.6287,5.1635l-1.9715,0.2816
	c1.2205,1.4082,1.4082,1.3143-0.4694,2.1593l1.596,1.1266c0.0939,0.3755-0.2816,0.6572-1.0327,0.8449
	c0.8449,1.9715,0.6572,2.9103-2.347,2.6287c0,0.9388,0.1878,1.8776,0.5633,2.8164H7.1129z"/>
<path class="st1" d="M19.4541,15.1364l-0.6-0.7c0.9-0.8,1-2.2,0.1-3.1l0.7-0.6C20.8541,11.9364,20.7541,13.9364,19.4541,15.1364z"/>
<path class="st1" d="M20.0275,15.5659c1.5-1.4,1.6-3.8,0.2-5.3l0.7-0.6c1.7,1.9,1.6,4.8-0.3,6.6
	C20.6275,16.2658,20.0275,15.5658,20.0275,15.5659z"/>
<path class="st1" d="M21.0275,16.6658c1.8-1.2,3-4.3,0.4-7.6l0.7-0.6c2.3,2.5,2.2,6.4-0.3,8.7l-0.2,0.2L21.0275,16.6658z"/>
<g>
	<path class="st1" d="M3.3857,15.7578c0.4933,0,0.96,0.1124,1.3771,0.3128c-0.1707,0.1351-0.329,0.2647-0.4765,0.3895
		c-0.2809-0.1021-0.584-0.1578-0.9001-0.1578c-0.7277,0-1.3868,0.295-1.8634,0.772c-0.477,0.477-0.772,1.1356-0.772,1.8634
		s0.295,1.3863,0.772,1.8634s1.1356,0.772,1.8634,0.772s1.3868-0.295,1.8634-0.772c0.477-0.477,0.772-1.1356,0.772-1.8634
		c0-0.1729-0.0167-0.3425-0.0486-0.5062c0.1367-0.1783,0.2766-0.356,0.4198-0.5322c0.1124,0.3252,0.1734,0.6748,0.1734,1.0384
		c0,0.8779-0.356,1.6732-0.9314,2.2486s-1.3706,0.9314-2.2486,0.9314s-1.6732-0.356-2.2486-0.9314
		c-0.5759-0.5754-0.9319-1.3706-0.9319-2.2486s0.356-1.6732,0.9314-2.2486S2.5078,15.7578,3.3857,15.7578L3.3857,15.7578z
		 M1.9043,18.4153l0.7758-0.0103l0.0578,0.0151c0.1567,0.0902,0.3042,0.1934,0.4419,0.3101
		c0.0994,0.0843,0.1945,0.1761,0.2847,0.2755c0.2782-0.4479,0.5748-0.859,0.8882-1.2372c0.3431-0.4144,0.7072-0.7904,1.0897-1.1335
		l0.0756-0.0292h0.8466L6.194,16.7956c-0.5246,0.5829-1.0006,1.1853-1.4306,1.8066c-0.43,0.6218-0.8147,1.2637-1.1567,1.9244
		L3.5002,20.732l-0.0978-0.2091C3.222,20.1355,3.0059,19.78,2.7482,19.4624c-0.2577-0.3177-0.5575-0.5997-0.9071-0.8396
		L1.9043,18.4153L1.9043,18.4153z"/>
</g>
</svg>
